# xmcd CD database file
#
# Track frame offsets:
#	150
#	13952
#	28097
#	41418
#	54948
#	69304
#	81680
#	95632
#	109700
#	122244
#	135762
#	149488
#	162820
#	174466
#	188647
#	202517
#	216733
#	231435
#
# Disc length: 3256 seconds
#
# Revision: 0
# Processed by: cddbd v1.5.1PL0 Copyright (c) Steve Scherf et al.
# Submitted via: CDex 1.51
#
DISCID=fe0cb612
DTITLE=Various Artist - Chicago Jazz CD 1
DYEAR=2003
DGENRE=Jazz
TTITLE0=Singin' the Blues
TTITLE1=Nobody's Sweetheart
TTITLE2=Milenberg Joys
TTITLE3=Shake That Jelly-Roll
TTITLE4=Sugar
TTITLE5=The Eel
TTITLE6=My ! Oh, My !
TTITLE7=Yellow Fire
TTITLE8=China Boy
TTITLE9=Oh Baby
TTITLE10=Indiana
TTITLE11=There'll Be Some Changes Made
TTITLE12=Chicago Blues
TTITLE13=I'm Sorry I Made You Cry
TTITLE14=Liza
TTITLE15=Prince of Wails
TTITLE16=Trying to Stop My Crying
TTITLE17=Feelin' No Pain
EXTD=YEAR: 2003
EXTT0=
EXTT1=
EXTT2=
EXTT3=
EXTT4=
EXTT5=
EXTT6=
EXTT7=
EXTT8=
EXTT9=
EXTT10=
EXTT11=
EXTT12=
EXTT13=
EXTT14=
EXTT15=
EXTT16=
EXTT17=
PLAYORDER=
